<svg xmlns="http://www.w3.org/2000/svg" viewBox="0 0 100 100">

  <circle cx="50" cy="50" r="47" fill="none" stroke="#d9b27a" stroke-width="1.1"/>
  <g fill="#d9b27a">
    <path transform="translate(23.5595 64) scale(0.021000 -0.021000)" d="M830.5 482.5 809.5 449.5 1152 1371Q1158.5 1389.5 1164.25 1394.75Q1170 1400 1181 1400H1487Q1491 1400 1493.25 1398.25Q1495.5 1396.5 1495.5 1394Q1495.5 1391.5 1493.0 1389.75Q1490.5 1388 1485 1387L1392.5 1373Q1376.5 1370.5 1369.0 1358.25Q1361.5 1346 1362.5 1326L1452 68Q1454 45.5 1459.75 37.5Q1465.5 29.5 1485 26L1571.5 13Q1577 12.5 1579.5 11.0Q1582 9.5 1582 6Q1582 4 1579.75 2.0Q1577.5 0 1573.5 0H1084.5Q1080 0 1077.75 2.0Q1075.5 4 1075.5 6Q1075.5 9.5 1078.0 11.0Q1080.5 12.5 1086.5 13L1172.5 26Q1193 29.5 1201.0 38.5Q1209 47.5 1208 68L1122.5 1271L1138 1281L732.5 154Q727.5 139.5 723.25 135.25Q719 131 715 131Q712.5 131 709.75 133.25Q707 135.5 704.25 140.5Q701.5 145.5 698 154L255.5 1264L268.5 1289L189 135.5Q186.5 97 211.5 70.0Q236.5 43 280.5 31L378.5 13Q383.5 12 385.75 10.5Q388 9 388 6Q388 4 386.25 2.0Q384.5 0 380.5 0H1.5Q-2.5 0 -4.5 2.0Q-6.5 4 -6.5 6Q-6.5 9.5 -3.5 10.75Q-0.5 12 3.5 13L73 30Q114.5 42 141.0 69.0Q167.5 96 170.5 137.5L248 1257.5Q253 1311 245.5 1339.75Q238 1368.5 213.5 1372L135.5 1383Q124.5 1385 119.0 1386.5Q113.5 1388 113.5 1392Q113.5 1400 129.5 1400H441Q451 1400 457.0 1395.0Q463 1390 468.5 1375Z"/>
    <path transform="translate(54.2015 64) rotate(6) scale(0.021000 -0.021000)" d="M495 1423.5Q539 1423.5 608.75 1412.0Q678.5 1400.5 758.5 1383.75Q838.5 1367 913.75 1350.0Q989 1333 1046.25 1321.5Q1103.5 1310 1126 1310Q1161 1310 1180.25 1321.75Q1199.5 1333.5 1203.5 1358Q1206.5 1380.5 1201.5 1411.75Q1196.5 1443 1199.5 1480Q1202.5 1521.5 1226.0 1546.25Q1249.5 1571 1285 1571Q1319 1571 1342.0 1544.0Q1365 1517 1364 1470.5Q1362.5 1389.5 1305.75 1340.0Q1249 1290.5 1169.5 1290.5Q1127 1290.5 1059.5 1302.75Q992 1315 912.5 1333.0Q833 1351 753.5 1368.75Q674 1386.5 605.75 1398.75Q537.5 1411 493.5 1411Q422.5 1411 386.0 1386.25Q349.5 1361.5 344 1316Q338.5 1274.5 349.25 1245.25Q360 1216 372.25 1189.75Q384.5 1163.5 383 1131Q381.5 1093.5 357.0 1069.75Q332.5 1046 291.5 1046.5Q245.5 1048 220.0 1090.75Q194.5 1133.5 204.5 1203.5Q212 1265.5 247.25 1315.25Q282.5 1365 345.0 1394.25Q407.5 1423.5 495 1423.5ZM574.5 76Q568 53 574.75 41.0Q581.5 29 602 26.5L701 15.5Q714 14.5 714 7.5Q714 4 711.25 2.0Q708.5 0 702 0H190Q185 0 182.0 1.75Q179 3.5 179 7Q179 11.5 182.5 13.25Q186 15 191.5 15.5L288.5 27Q306.5 29 317.25 40.25Q328 51.5 335 74Q349 119 373.0 200.25Q397 281.5 427.0 386.25Q457 491 490.75 608.0Q524.5 725 557.75 842.5Q591 960 620.75 1066.0Q650.5 1172 674.0 1255.25Q697.5 1338.5 710.5 1386.5L932.5 1338.5Q917.5 1290.5 893.75 1208.75Q870 1127 840.75 1024.0Q811.5 921 779.75 808.0Q748 695 716.5 582.75Q685 470.5 657.25 370.5Q629.5 270.5 608.0 194.0Q586.5 117.5 574.5 76Z"/>
  </g>
</svg>